<svg xmlns="http://www.w3.org/2000/svg" version="1.1" xmlns:xlink="http://www.w3.org/1999/xlink" xmlns:svgjs="http://svgjs.dev/svgjs" width="2000" height="2250" viewBox="0 0 2000 2250"><g transform="matrix(1,0,0,1,0,0)"><svg viewBox="0 0 320 360" data-background-color="#ffffff" preserveAspectRatio="xMidYMid meet" height="2250" width="2000" xmlns="http://www.w3.org/2000/svg" xmlns:xlink="http://www.w3.org/1999/xlink"><g id="tight-bounds" transform="matrix(1,0,0,1,0,0)"><svg viewBox="0 0 320 360" height="360" width="320"><g><svg></svg></g><g><svg viewBox="0 0 320 360" height="360" width="320"><g><path xmlns="http://www.w3.org/2000/svg" d="M320 187.111c0-45.764-20.238-86.866-52.203-114.908-28.043-31.964-69.145-52.203-114.908-52.203-84.302 0-152.889 68.587-152.889 152.889 0 45.753 20.231 86.848 52.185 114.891 28.043 31.975 69.152 52.22 114.926 52.22 0.299 0 0.59-0.021 0.889-0.021 0.299 0 0.59 0.021 0.889 0.021 83.456 0 151.111-67.655 151.111-151.111 0-0.299-0.021-0.59-0.021-0.889 0-0.299 0.021-0.59 0.021-0.889zM59.833 263.097c-15.093-21.255-24.071-47.143-24.256-75.097 0.48-72.928 59.492-131.943 132.423-132.423 27.954 0.185 53.845 9.163 75.097 24.256 24.366 23.627 39.57 56.64 39.57 93.056 0 71.559-58.219 129.778-129.778 129.778-36.416 0-69.429-15.204-93.056-39.57zM3.556 172.889c0-82.343 66.99-149.333 149.333-149.333 35.051 0 67.292 12.167 92.8 32.462-22.98-13.824-49.863-21.796-78.578-21.796-84.302 0-152.889 68.587-152.889 152.889 0 28.708 7.968 55.584 21.785 78.56-20.288-25.5-32.452-57.739-32.451-92.782zM167.111 318.667c-35.84 0-68.363-14.418-92.107-37.743 21.952 15.89 48.864 25.298 77.885 25.298 73.522 0 133.333-59.812 133.333-133.333 0-29.02-9.408-55.932-25.298-77.885 23.324 23.744 37.742 56.267 37.743 92.107 0 72.54-59.015 131.556-131.556 131.556z" fill="#ffffff" fill-rule="nonzero" stroke="none" stroke-width="1" stroke-linecap="butt" stroke-linejoin="miter" stroke-miterlimit="10" stroke-dasharray="" stroke-dashoffset="0" font-family="none" font-weight="none" font-size="none" text-anchor="none" style="mix-blend-mode: normal" data-fill-palette-color="tertiary"></path></g><g transform="matrix(1,0,0,1,65.0589641434263,99)"><svg viewBox="0 0 189.8820717131474 162" height="162" width="189.8820717131474"><g><svg viewBox="0 0 189.8820717131474 162" height="162" width="189.8820717131474"><g><svg viewBox="0 0 189.8820717131474 162" height="162" width="189.8820717131474"><g><svg viewBox="0 0 189.8820717131474 162" height="162" width="189.8820717131474"><g id="textblocktransform"><svg viewBox="0 0 189.8820717131474 162" height="162" width="189.8820717131474" id="textblock"><g><svg viewBox="0 0 189.8820717131474 162" height="162" width="189.8820717131474"><g transform="matrix(1,0,0,1,0,0)"><svg width="189.8820717131474" viewBox="2.7300000190734863 -30.520000457763672 35.90999984741211 30.64000129699707" height="162" data-palette-color="#4790fc"><path d="M5.35 0.12Q4.03 0.12 3.38-0.24 2.73-0.61 2.73-1.29L2.73-1.29 2.73-29.08Q2.73-30.52 5.35-30.52L5.35-30.52 6.86-30.52Q8.2-30.52 8.83-30.15 9.45-29.79 9.45-29.08L9.45-29.08 9.45-1.29Q9.45 0.12 6.86 0.12L6.86 0.12 5.35 0.12ZM24.46 0.07Q23.41 0.07 22.8-0.13 22.19-0.34 22.04-0.83L22.04-0.83 12.67-28.74Q12.47-29.32 12.47-29.52L12.47-29.52Q12.47-30.49 15.13-30.49L15.13-30.49 16.55-30.49Q18.72-30.49 19.11-29.2L19.11-29.2 24.97-10.42 25.46-8.91 25.63-8.91 26.12-10.42 32.13-29.2Q32.57-30.49 34.71-30.49L34.71-30.49 36.03-30.49Q38.64-30.49 38.64-29.52L38.64-29.52Q38.64-29.08 38.5-28.74L38.5-28.74 29.12-0.83Q28.98-0.34 28.35-0.13 27.73 0.07 26.71 0.07L26.71 0.07 24.46 0.07Z" opacity="1" transform="matrix(1,0,0,1,0,0)" fill="#ffffff" class="wordmark-text-0" data-fill-palette-color="primary" id="text-0"></path></svg></g></svg></g></svg></g></svg></g></svg></g></svg></g></svg></g></svg></g><defs></defs></svg><rect width="320" height="360" fill="none" stroke="none" visibility="hidden"></rect></g></svg></g></svg>